<mxfile host="app.diagrams.net" modified="2022-12-14T14:42:09.568Z" agent="5.0 (Windows NT 10.0; Win64; x64) AppleWebKit/537.36 (KHTML, like Gecko) Chrome/108.0.0.0 Safari/537.36" etag="xxpjsnVyIhtPyGR8XGtM" version="20.6.2" type="github">
  <diagram id="YsQUChMxit_Z1SeAfBHY" name="Page-1">
    <mxGraphModel dx="2966" dy="2049" grid="0" gridSize="24" guides="1" tooltips="1" connect="1" arrows="1" fold="1" page="0" pageScale="1" pageWidth="850" pageHeight="1100" math="0" shadow="0">
      <root>
        <mxCell id="0" />
        <mxCell id="1" parent="0" />
        <mxCell id="miq3lb_JbVs2y22tPe6I-1" value="Pouzivatel" style="shape=umlActor;verticalLabelPosition=bottom;verticalAlign=top;html=1;outlineConnect=0;" parent="1" vertex="1">
          <mxGeometry x="70.5" y="200" width="50" height="100" as="geometry" />
        </mxCell>
        <mxCell id="miq3lb_JbVs2y22tPe6I-6" value="Vytvorenia Udalosti" style="ellipse;whiteSpace=wrap;html=1;" parent="1" vertex="1">
          <mxGeometry x="420.5" y="63" width="120" height="80" as="geometry" />
        </mxCell>
        <mxCell id="miq3lb_JbVs2y22tPe6I-7" value="Nakupny List" style="ellipse;whiteSpace=wrap;html=1;" parent="1" vertex="1">
          <mxGeometry x="420.5" y="243" width="120" height="80" as="geometry" />
        </mxCell>
        <mxCell id="miq3lb_JbVs2y22tPe6I-8" value="ZdieÄ¾anie" style="ellipse;whiteSpace=wrap;html=1;" parent="1" vertex="1">
          <mxGeometry x="420.5" y="333" width="120" height="80" as="geometry" />
        </mxCell>
        <mxCell id="miq3lb_JbVs2y22tPe6I-10" value="" style="endArrow=block;html=1;rounded=0;entryX=0;entryY=0.5;entryDx=0;entryDy=0;endFill=1;exitX=1;exitY=0.5;exitDx=0;exitDy=0;" parent="1" target="miq3lb_JbVs2y22tPe6I-6" edge="1" source="XvDEjpSmmAusepGZGCwF-2">
          <mxGeometry width="50" height="50" relative="1" as="geometry">
            <mxPoint x="329.5" y="230" as="sourcePoint" />
            <mxPoint x="789.5" y="220" as="targetPoint" />
          </mxGeometry>
        </mxCell>
        <mxCell id="miq3lb_JbVs2y22tPe6I-11" value="" style="endArrow=block;html=1;rounded=0;entryX=0;entryY=0.5;entryDx=0;entryDy=0;endFill=1;exitX=1;exitY=0.5;exitDx=0;exitDy=0;" parent="1" target="miq3lb_JbVs2y22tPe6I-7" edge="1" source="XvDEjpSmmAusepGZGCwF-2">
          <mxGeometry width="50" height="50" relative="1" as="geometry">
            <mxPoint x="329.5" y="250" as="sourcePoint" />
            <mxPoint x="789.5" y="240" as="targetPoint" />
          </mxGeometry>
        </mxCell>
        <mxCell id="miq3lb_JbVs2y22tPe6I-12" value="" style="endArrow=block;html=1;rounded=0;entryX=0;entryY=0.5;entryDx=0;entryDy=0;endFill=1;exitX=1;exitY=0.5;exitDx=0;exitDy=0;" parent="1" target="miq3lb_JbVs2y22tPe6I-8" edge="1" source="XvDEjpSmmAusepGZGCwF-2">
          <mxGeometry width="50" height="50" relative="1" as="geometry">
            <mxPoint x="329.5" y="260" as="sourcePoint" />
            <mxPoint x="789.5" y="210" as="targetPoint" />
          </mxGeometry>
        </mxCell>
        <mxCell id="miq3lb_JbVs2y22tPe6I-14" value="Typ udalosti" style="ellipse;whiteSpace=wrap;html=1;" parent="1" vertex="1">
          <mxGeometry x="618.5" y="76.5" width="81" height="53" as="geometry" />
        </mxCell>
        <mxCell id="miq3lb_JbVs2y22tPe6I-15" value="Include" style="endArrow=open;html=1;rounded=0;exitX=1;exitY=0.5;exitDx=0;exitDy=0;entryX=0;entryY=0.5;entryDx=0;entryDy=0;dashed=1;endFill=0;" parent="1" source="miq3lb_JbVs2y22tPe6I-6" target="miq3lb_JbVs2y22tPe6I-14" edge="1">
          <mxGeometry width="50" height="50" relative="1" as="geometry">
            <mxPoint x="651.5" y="260" as="sourcePoint" />
            <mxPoint x="721.5" y="40" as="targetPoint" />
          </mxGeometry>
        </mxCell>
        <mxCell id="miq3lb_JbVs2y22tPe6I-19" value="Pripominania" style="ellipse;whiteSpace=wrap;html=1;" parent="1" vertex="1">
          <mxGeometry x="420.5" y="153" width="120" height="80" as="geometry" />
        </mxCell>
        <mxCell id="miq3lb_JbVs2y22tPe6I-21" value="Cas" style="ellipse;whiteSpace=wrap;html=1;" parent="1" vertex="1">
          <mxGeometry x="608" y="146" width="40" height="40" as="geometry" />
        </mxCell>
        <mxCell id="miq3lb_JbVs2y22tPe6I-22" value="GPS" style="ellipse;whiteSpace=wrap;html=1;" parent="1" vertex="1">
          <mxGeometry x="608" y="202" width="40" height="40" as="geometry" />
        </mxCell>
        <mxCell id="miq3lb_JbVs2y22tPe6I-23" value="Extends" style="endArrow=open;html=1;rounded=0;dashed=1;exitX=0;exitY=0.5;exitDx=0;exitDy=0;entryX=1;entryY=0;entryDx=0;entryDy=0;endFill=0;" parent="1" source="miq3lb_JbVs2y22tPe6I-21" edge="1" target="miq3lb_JbVs2y22tPe6I-19">
          <mxGeometry width="50" height="50" relative="1" as="geometry">
            <mxPoint x="671.5" y="238" as="sourcePoint" />
            <mxPoint x="623.926406871193" y="129.71572875253776" as="targetPoint" />
          </mxGeometry>
        </mxCell>
        <mxCell id="miq3lb_JbVs2y22tPe6I-24" value="Extends" style="endArrow=open;html=1;rounded=0;dashed=1;exitX=0;exitY=0.5;exitDx=0;exitDy=0;entryX=1;entryY=1;entryDx=0;entryDy=0;endFill=0;" parent="1" edge="1" target="miq3lb_JbVs2y22tPe6I-19" source="miq3lb_JbVs2y22tPe6I-22">
          <mxGeometry width="50" height="50" relative="1" as="geometry">
            <mxPoint x="773.5" y="172" as="sourcePoint" />
            <mxPoint x="622.9264068711927" y="171.2842712474618" as="targetPoint" />
          </mxGeometry>
        </mxCell>
        <mxCell id="miq3lb_JbVs2y22tPe6I-25" value="" style="endArrow=block;html=1;rounded=0;entryX=0;entryY=0.5;entryDx=0;entryDy=0;endFill=1;exitX=1;exitY=0.5;exitDx=0;exitDy=0;" parent="1" edge="1" target="miq3lb_JbVs2y22tPe6I-19" source="XvDEjpSmmAusepGZGCwF-2">
          <mxGeometry width="50" height="50" relative="1" as="geometry">
            <mxPoint x="329.5" y="242" as="sourcePoint" />
            <mxPoint x="511.5" y="152" as="targetPoint" />
          </mxGeometry>
        </mxCell>
        <mxCell id="miq3lb_JbVs2y22tPe6I-32" value="&lt;font style=&quot;font-size: 20px;&quot;&gt;App&lt;/font&gt;" style="text;html=1;strokeColor=default;fillColor=none;align=center;verticalAlign=middle;whiteSpace=wrap;rounded=0;" parent="1" vertex="1">
          <mxGeometry x="173.5" y="40" width="60" height="30" as="geometry" />
        </mxCell>
        <mxCell id="_EXAe3c4rwl4PC7S1Te0-2" value="App Login" style="swimlane;fontStyle=0;childLayout=stackLayout;horizontal=1;startSize=26;fillColor=none;horizontalStack=0;resizeParent=1;resizeParentMax=0;resizeLast=0;collapsible=1;marginBottom=0;strokeColor=default;" parent="1" vertex="1">
          <mxGeometry x="1161" y="-11" width="160" height="130" as="geometry" />
        </mxCell>
        <mxCell id="_EXAe3c4rwl4PC7S1Te0-3" value="+ userName: String" style="text;strokeColor=none;fillColor=none;align=left;verticalAlign=top;spacingLeft=4;spacingRight=4;overflow=hidden;rotatable=0;points=[[0,0.5],[1,0.5]];portConstraint=eastwest;" parent="_EXAe3c4rwl4PC7S1Te0-2" vertex="1">
          <mxGeometry y="26" width="160" height="26" as="geometry" />
        </mxCell>
        <mxCell id="_EXAe3c4rwl4PC7S1Te0-6" value="+ email: String" style="text;strokeColor=none;fillColor=none;align=left;verticalAlign=top;spacingLeft=4;spacingRight=4;overflow=hidden;rotatable=0;points=[[0,0.5],[1,0.5]];portConstraint=eastwest;" parent="_EXAe3c4rwl4PC7S1Te0-2" vertex="1">
          <mxGeometry y="52" width="160" height="26" as="geometry" />
        </mxCell>
        <mxCell id="_EXAe3c4rwl4PC7S1Te0-5" value="+ password: String" style="text;strokeColor=none;fillColor=none;align=left;verticalAlign=top;spacingLeft=4;spacingRight=4;overflow=hidden;rotatable=0;points=[[0,0.5],[1,0.5]];portConstraint=eastwest;" parent="_EXAe3c4rwl4PC7S1Te0-2" vertex="1">
          <mxGeometry y="78" width="160" height="26" as="geometry" />
        </mxCell>
        <mxCell id="_EXAe3c4rwl4PC7S1Te0-4" value="+ login()" style="text;strokeColor=default;fillColor=none;align=left;verticalAlign=top;spacingLeft=4;spacingRight=4;overflow=hidden;rotatable=0;points=[[0,0.5],[1,0.5]];portConstraint=eastwest;" parent="_EXAe3c4rwl4PC7S1Te0-2" vertex="1">
          <mxGeometry y="104" width="160" height="26" as="geometry" />
        </mxCell>
        <mxCell id="_EXAe3c4rwl4PC7S1Te0-11" value="Shopping List" style="swimlane;fontStyle=0;childLayout=stackLayout;horizontal=1;startSize=26;fillColor=none;horizontalStack=0;resizeParent=1;resizeParentMax=0;resizeLast=0;collapsible=1;marginBottom=0;" parent="1" vertex="1">
          <mxGeometry x="1391" y="353" width="120" height="132" as="geometry" />
        </mxCell>
        <mxCell id="_EXAe3c4rwl4PC7S1Te0-12" value="+ listName: String&#xa;&#xa;" style="text;strokeColor=none;fillColor=none;align=left;verticalAlign=top;spacingLeft=4;spacingRight=4;overflow=hidden;rotatable=0;points=[[0,0.5],[1,0.5]];portConstraint=eastwest;" parent="_EXAe3c4rwl4PC7S1Te0-11" vertex="1">
          <mxGeometry y="26" width="120" height="26" as="geometry" />
        </mxCell>
        <mxCell id="_EXAe3c4rwl4PC7S1Te0-15" value="+ items: List" style="text;strokeColor=none;fillColor=none;align=left;verticalAlign=top;spacingLeft=4;spacingRight=4;overflow=hidden;rotatable=0;points=[[0,0.5],[1,0.5]];portConstraint=eastwest;" parent="_EXAe3c4rwl4PC7S1Te0-11" vertex="1">
          <mxGeometry y="52" width="120" height="26" as="geometry" />
        </mxCell>
        <mxCell id="_EXAe3c4rwl4PC7S1Te0-13" value="+ date: int" style="text;strokeColor=none;fillColor=none;align=left;verticalAlign=top;spacingLeft=4;spacingRight=4;overflow=hidden;rotatable=0;points=[[0,0.5],[1,0.5]];portConstraint=eastwest;" parent="_EXAe3c4rwl4PC7S1Te0-11" vertex="1">
          <mxGeometry y="78" width="120" height="28" as="geometry" />
        </mxCell>
        <mxCell id="_EXAe3c4rwl4PC7S1Te0-14" value="+ location" style="text;strokeColor=none;fillColor=none;align=left;verticalAlign=top;spacingLeft=4;spacingRight=4;overflow=hidden;rotatable=0;points=[[0,0.5],[1,0.5]];portConstraint=eastwest;" parent="_EXAe3c4rwl4PC7S1Te0-11" vertex="1">
          <mxGeometry y="106" width="120" height="26" as="geometry" />
        </mxCell>
        <mxCell id="_EXAe3c4rwl4PC7S1Te0-16" value="Item" style="swimlane;fontStyle=0;childLayout=stackLayout;horizontal=1;startSize=26;fillColor=none;horizontalStack=0;resizeParent=1;resizeParentMax=0;resizeLast=0;collapsible=1;marginBottom=0;" parent="1" vertex="1">
          <mxGeometry x="1593" y="407" width="120" height="78" as="geometry" />
        </mxCell>
        <mxCell id="_EXAe3c4rwl4PC7S1Te0-17" value="+ itemName: String&#xa;" style="text;strokeColor=none;fillColor=none;align=left;verticalAlign=top;spacingLeft=4;spacingRight=4;overflow=hidden;rotatable=0;points=[[0,0.5],[1,0.5]];portConstraint=eastwest;" parent="_EXAe3c4rwl4PC7S1Te0-16" vertex="1">
          <mxGeometry y="26" width="120" height="26" as="geometry" />
        </mxCell>
        <mxCell id="_EXAe3c4rwl4PC7S1Te0-18" value="+ itemCount: Int" style="text;strokeColor=none;fillColor=none;align=left;verticalAlign=top;spacingLeft=4;spacingRight=4;overflow=hidden;rotatable=0;points=[[0,0.5],[1,0.5]];portConstraint=eastwest;" parent="_EXAe3c4rwl4PC7S1Te0-16" vertex="1">
          <mxGeometry y="52" width="120" height="26" as="geometry" />
        </mxCell>
        <mxCell id="_EXAe3c4rwl4PC7S1Te0-21" value="Event" style="swimlane;fontStyle=0;childLayout=stackLayout;horizontal=1;startSize=26;fillColor=none;horizontalStack=0;resizeParent=1;resizeParentMax=0;resizeLast=0;collapsible=1;marginBottom=0;strokeColor=default;" parent="1" vertex="1">
          <mxGeometry x="1391" y="171" width="160" height="156" as="geometry">
            <mxRectangle x="350" y="1360" width="80" height="30" as="alternateBounds" />
          </mxGeometry>
        </mxCell>
        <mxCell id="_EXAe3c4rwl4PC7S1Te0-22" value="+ eventName: String" style="text;strokeColor=none;fillColor=none;align=left;verticalAlign=top;spacingLeft=4;spacingRight=4;overflow=hidden;rotatable=0;points=[[0,0.5],[1,0.5]];portConstraint=eastwest;" parent="_EXAe3c4rwl4PC7S1Te0-21" vertex="1">
          <mxGeometry y="26" width="160" height="26" as="geometry" />
        </mxCell>
        <mxCell id="_EXAe3c4rwl4PC7S1Te0-23" value="+ eventDate: int" style="text;strokeColor=none;fillColor=none;align=left;verticalAlign=top;spacingLeft=4;spacingRight=4;overflow=hidden;rotatable=0;points=[[0,0.5],[1,0.5]];portConstraint=eastwest;" parent="_EXAe3c4rwl4PC7S1Te0-21" vertex="1">
          <mxGeometry y="52" width="160" height="26" as="geometry" />
        </mxCell>
        <mxCell id="_EXAe3c4rwl4PC7S1Te0-24" value="+ location: GPS" style="text;strokeColor=none;fillColor=none;align=left;verticalAlign=top;spacingLeft=4;spacingRight=4;overflow=hidden;rotatable=0;points=[[0,0.5],[1,0.5]];portConstraint=eastwest;" parent="_EXAe3c4rwl4PC7S1Te0-21" vertex="1">
          <mxGeometry y="78" width="160" height="26" as="geometry" />
        </mxCell>
        <mxCell id="_EXAe3c4rwl4PC7S1Te0-32" value="+ recurrence: BooleanÂ " style="text;strokeColor=none;fillColor=none;align=left;verticalAlign=top;spacingLeft=4;spacingRight=4;overflow=hidden;rotatable=0;points=[[0,0.5],[1,0.5]];portConstraint=eastwest;" parent="_EXAe3c4rwl4PC7S1Te0-21" vertex="1">
          <mxGeometry y="104" width="160" height="26" as="geometry" />
        </mxCell>
        <mxCell id="JxuMeKBLTt-bc3pycbI3-24" value="+ clearEvent()Â " style="text;strokeColor=default;fillColor=none;align=left;verticalAlign=top;spacingLeft=4;spacingRight=4;overflow=hidden;rotatable=0;points=[[0,0.5],[1,0.5]];portConstraint=eastwest;" vertex="1" parent="_EXAe3c4rwl4PC7S1Te0-21">
          <mxGeometry y="130" width="160" height="26" as="geometry" />
        </mxCell>
        <mxCell id="_EXAe3c4rwl4PC7S1Te0-26" value="Kalendar" style="swimlane;fontStyle=0;childLayout=stackLayout;horizontal=1;startSize=26;fillColor=none;horizontalStack=0;resizeParent=1;resizeParentMax=0;resizeLast=0;collapsible=1;marginBottom=0;strokeColor=default;" parent="1" vertex="1">
          <mxGeometry x="1161" y="171" width="160" height="208" as="geometry">
            <mxRectangle x="350" y="1360" width="80" height="30" as="alternateBounds" />
          </mxGeometry>
        </mxCell>
        <mxCell id="_EXAe3c4rwl4PC7S1Te0-27" value="+ dates" style="text;strokeColor=none;fillColor=none;align=left;verticalAlign=top;spacingLeft=4;spacingRight=4;overflow=hidden;rotatable=0;points=[[0,0.5],[1,0.5]];portConstraint=eastwest;" parent="_EXAe3c4rwl4PC7S1Te0-26" vertex="1">
          <mxGeometry y="26" width="160" height="26" as="geometry" />
        </mxCell>
        <mxCell id="_EXAe3c4rwl4PC7S1Te0-42" value="+ events: List" style="text;strokeColor=none;fillColor=none;align=left;verticalAlign=top;spacingLeft=4;spacingRight=4;overflow=hidden;rotatable=0;points=[[0,0.5],[1,0.5]];portConstraint=eastwest;" parent="_EXAe3c4rwl4PC7S1Te0-26" vertex="1">
          <mxGeometry y="52" width="160" height="26" as="geometry" />
        </mxCell>
        <mxCell id="_EXAe3c4rwl4PC7S1Te0-41" value="+ shoppingList: List" style="text;strokeColor=none;fillColor=none;align=left;verticalAlign=top;spacingLeft=4;spacingRight=4;overflow=hidden;rotatable=0;points=[[0,0.5],[1,0.5]];portConstraint=eastwest;strokeWidth=1;perimeterSpacing=14;" parent="_EXAe3c4rwl4PC7S1Te0-26" vertex="1">
          <mxGeometry y="78" width="160" height="26" as="geometry" />
        </mxCell>
        <mxCell id="_EXAe3c4rwl4PC7S1Te0-43" value="" style="endArrow=none;html=1;rounded=0;entryX=1.004;entryY=-0.025;entryDx=0;entryDy=0;entryPerimeter=0;" parent="_EXAe3c4rwl4PC7S1Te0-26" edge="1">
          <mxGeometry width="50" height="50" relative="1" as="geometry">
            <mxPoint x="0.36000000000001364" y="104" as="sourcePoint" />
            <mxPoint x="159.9999999999999" y="104.34999999999991" as="targetPoint" />
            <Array as="points" />
          </mxGeometry>
        </mxCell>
        <mxCell id="_EXAe3c4rwl4PC7S1Te0-28" value="+ displayEvents()" style="text;strokeColor=none;fillColor=none;align=left;verticalAlign=top;spacingLeft=4;spacingRight=4;overflow=hidden;rotatable=0;points=[[0,0.5],[1,0.5]];portConstraint=eastwest;" parent="_EXAe3c4rwl4PC7S1Te0-26" vertex="1">
          <mxGeometry y="104" width="160" height="26" as="geometry" />
        </mxCell>
        <mxCell id="_EXAe3c4rwl4PC7S1Te0-29" value="+ shareEvent()" style="text;strokeColor=none;fillColor=none;align=left;verticalAlign=top;spacingLeft=4;spacingRight=4;overflow=hidden;rotatable=0;points=[[0,0.5],[1,0.5]];portConstraint=eastwest;" parent="_EXAe3c4rwl4PC7S1Te0-26" vertex="1">
          <mxGeometry y="130" width="160" height="26" as="geometry" />
        </mxCell>
        <mxCell id="_EXAe3c4rwl4PC7S1Te0-40" value="+ notification()" style="text;strokeColor=none;fillColor=none;align=left;verticalAlign=top;spacingLeft=4;spacingRight=4;overflow=hidden;rotatable=0;points=[[0,0.5],[1,0.5]];portConstraint=eastwest;" parent="_EXAe3c4rwl4PC7S1Te0-26" vertex="1">
          <mxGeometry y="156" width="160" height="26" as="geometry" />
        </mxCell>
        <mxCell id="_EXAe3c4rwl4PC7S1Te0-33" value="+ export()" style="text;strokeColor=none;fillColor=none;align=left;verticalAlign=top;spacingLeft=4;spacingRight=4;overflow=hidden;rotatable=0;points=[[0,0.5],[1,0.5]];portConstraint=eastwest;" parent="_EXAe3c4rwl4PC7S1Te0-26" vertex="1">
          <mxGeometry y="182" width="160" height="26" as="geometry" />
        </mxCell>
        <mxCell id="XvDEjpSmmAusepGZGCwF-2" value="PrihlÃ¡senie" style="ellipse;whiteSpace=wrap;html=1;" parent="1" vertex="1">
          <mxGeometry x="203.5" y="210" width="120" height="80" as="geometry" />
        </mxCell>
        <mxCell id="XvDEjpSmmAusepGZGCwF-3" value="" style="endArrow=classic;html=1;rounded=0;entryX=0;entryY=0.5;entryDx=0;entryDy=0;" parent="1" source="miq3lb_JbVs2y22tPe6I-1" target="XvDEjpSmmAusepGZGCwF-2" edge="1">
          <mxGeometry width="50" height="50" relative="1" as="geometry">
            <mxPoint x="558.5" y="248" as="sourcePoint" />
            <mxPoint x="198.5" y="250" as="targetPoint" />
          </mxGeometry>
        </mxCell>
        <mxCell id="JxuMeKBLTt-bc3pycbI3-1" value="User" style="swimlane;fontStyle=0;childLayout=stackLayout;horizontal=1;startSize=26;fillColor=none;horizontalStack=0;resizeParent=1;resizeParentMax=0;resizeLast=0;collapsible=1;marginBottom=0;strokeColor=default;" vertex="1" parent="1">
          <mxGeometry x="888" y="-11" width="190" height="286" as="geometry" />
        </mxCell>
        <mxCell id="JxuMeKBLTt-bc3pycbI3-2" value="+ userName: String" style="text;strokeColor=none;fillColor=none;align=left;verticalAlign=top;spacingLeft=4;spacingRight=4;overflow=hidden;rotatable=0;points=[[0,0.5],[1,0.5]];portConstraint=eastwest;" vertex="1" parent="JxuMeKBLTt-bc3pycbI3-1">
          <mxGeometry y="26" width="190" height="26" as="geometry" />
        </mxCell>
        <mxCell id="JxuMeKBLTt-bc3pycbI3-3" value="+ firstName: String" style="text;strokeColor=none;fillColor=none;align=left;verticalAlign=top;spacingLeft=4;spacingRight=4;overflow=hidden;rotatable=0;points=[[0,0.5],[1,0.5]];portConstraint=eastwest;" vertex="1" parent="JxuMeKBLTt-bc3pycbI3-1">
          <mxGeometry y="52" width="190" height="26" as="geometry" />
        </mxCell>
        <mxCell id="JxuMeKBLTt-bc3pycbI3-4" value="+ lastName: String" style="text;strokeColor=none;fillColor=none;align=left;verticalAlign=top;spacingLeft=4;spacingRight=4;overflow=hidden;rotatable=0;points=[[0,0.5],[1,0.5]];portConstraint=eastwest;" vertex="1" parent="JxuMeKBLTt-bc3pycbI3-1">
          <mxGeometry y="78" width="190" height="26" as="geometry" />
        </mxCell>
        <mxCell id="JxuMeKBLTt-bc3pycbI3-5" value="+ email: String" style="text;strokeColor=none;fillColor=none;align=left;verticalAlign=top;spacingLeft=4;spacingRight=4;overflow=hidden;rotatable=0;points=[[0,0.5],[1,0.5]];portConstraint=eastwest;" vertex="1" parent="JxuMeKBLTt-bc3pycbI3-1">
          <mxGeometry y="104" width="190" height="26" as="geometry" />
        </mxCell>
        <mxCell id="JxuMeKBLTt-bc3pycbI3-7" value="+ password: String" style="text;strokeColor=none;fillColor=none;align=left;verticalAlign=top;spacingLeft=4;spacingRight=4;overflow=hidden;rotatable=0;points=[[0,0.5],[1,0.5]];portConstraint=eastwest;" vertex="1" parent="JxuMeKBLTt-bc3pycbI3-1">
          <mxGeometry y="130" width="190" height="26" as="geometry" />
        </mxCell>
        <mxCell id="JxuMeKBLTt-bc3pycbI3-6" value="+ personalCalendar: Calendar" style="text;strokeColor=none;fillColor=none;align=left;verticalAlign=top;spacingLeft=4;spacingRight=4;overflow=hidden;rotatable=0;points=[[0,0.5],[1,0.5]];portConstraint=eastwest;" vertex="1" parent="JxuMeKBLTt-bc3pycbI3-1">
          <mxGeometry y="156" width="190" height="26" as="geometry" />
        </mxCell>
        <mxCell id="JxuMeKBLTt-bc3pycbI3-12" value="" style="endArrow=none;html=1;rounded=0;" edge="1" parent="JxuMeKBLTt-bc3pycbI3-1">
          <mxGeometry width="50" height="50" relative="1" as="geometry">
            <mxPoint x="1.1368683772161603e-13" y="182" as="sourcePoint" />
            <mxPoint x="190" y="182" as="targetPoint" />
            <Array as="points" />
          </mxGeometry>
        </mxCell>
        <mxCell id="JxuMeKBLTt-bc3pycbI3-8" value="+ user()" style="text;strokeColor=none;fillColor=none;align=left;verticalAlign=top;spacingLeft=4;spacingRight=4;overflow=hidden;rotatable=0;points=[[0,0.5],[1,0.5]];portConstraint=eastwest;" vertex="1" parent="JxuMeKBLTt-bc3pycbI3-1">
          <mxGeometry y="182" width="190" height="26" as="geometry" />
        </mxCell>
        <mxCell id="JxuMeKBLTt-bc3pycbI3-9" value="+ browseCal()" style="text;strokeColor=none;fillColor=none;align=left;verticalAlign=top;spacingLeft=4;spacingRight=4;overflow=hidden;rotatable=0;points=[[0,0.5],[1,0.5]];portConstraint=eastwest;" vertex="1" parent="JxuMeKBLTt-bc3pycbI3-1">
          <mxGeometry y="208" width="190" height="26" as="geometry" />
        </mxCell>
        <mxCell id="JxuMeKBLTt-bc3pycbI3-11" value="+ createEvent()" style="text;strokeColor=none;fillColor=none;align=left;verticalAlign=top;spacingLeft=4;spacingRight=4;overflow=hidden;rotatable=0;points=[[0,0.5],[1,0.5]];portConstraint=eastwest;" vertex="1" parent="JxuMeKBLTt-bc3pycbI3-1">
          <mxGeometry y="234" width="190" height="26" as="geometry" />
        </mxCell>
        <mxCell id="JxuMeKBLTt-bc3pycbI3-10" value="+ createList()" style="text;strokeColor=none;fillColor=none;align=left;verticalAlign=top;spacingLeft=4;spacingRight=4;overflow=hidden;rotatable=0;points=[[0,0.5],[1,0.5]];portConstraint=eastwest;" vertex="1" parent="JxuMeKBLTt-bc3pycbI3-1">
          <mxGeometry y="260" width="190" height="26" as="geometry" />
        </mxCell>
        <mxCell id="JxuMeKBLTt-bc3pycbI3-17" value="" style="endArrow=none;html=1;rounded=0;exitX=1.003;exitY=0.037;exitDx=0;exitDy=0;exitPerimeter=0;endFill=0;startArrow=diamondThin;startFill=1;" edge="1" parent="1" source="JxuMeKBLTt-bc3pycbI3-1">
          <mxGeometry width="50" height="50" relative="1" as="geometry">
            <mxPoint x="1241" y="159" as="sourcePoint" />
            <mxPoint x="1161" y="-1" as="targetPoint" />
          </mxGeometry>
        </mxCell>
        <mxCell id="JxuMeKBLTt-bc3pycbI3-18" value="" style="endArrow=none;html=1;rounded=0;endFill=0;exitX=0.5;exitY=1;exitDx=0;exitDy=0;exitPerimeter=0;startArrow=diamondThin;startFill=1;" edge="1" parent="1" source="_EXAe3c4rwl4PC7S1Te0-4">
          <mxGeometry width="50" height="50" relative="1" as="geometry">
            <mxPoint x="1241" y="70" as="sourcePoint" />
            <mxPoint x="1241" y="170" as="targetPoint" />
          </mxGeometry>
        </mxCell>
        <mxCell id="JxuMeKBLTt-bc3pycbI3-25" value="" style="endArrow=none;html=1;rounded=0;entryX=0;entryY=0.064;entryDx=0;entryDy=0;entryPerimeter=0;endFill=0;startArrow=diamondThin;startFill=1;" edge="1" parent="1" target="_EXAe3c4rwl4PC7S1Te0-21">
          <mxGeometry width="50" height="50" relative="1" as="geometry">
            <mxPoint x="1321" y="181" as="sourcePoint" />
            <mxPoint x="1381" y="121" as="targetPoint" />
          </mxGeometry>
        </mxCell>
        <mxCell id="JxuMeKBLTt-bc3pycbI3-54" value="" style="edgeStyle=orthogonalEdgeStyle;rounded=0;orthogonalLoop=1;jettySize=auto;html=1;endArrow=diamondThin;endFill=1;entryX=1.002;entryY=0.082;entryDx=0;entryDy=0;entryPerimeter=0;exitX=0;exitY=0.25;exitDx=0;exitDy=0;" edge="1" parent="1" source="JxuMeKBLTt-bc3pycbI3-44" target="_EXAe3c4rwl4PC7S1Te0-21">
          <mxGeometry relative="1" as="geometry" />
        </mxCell>
        <mxCell id="JxuMeKBLTt-bc3pycbI3-44" value="Notification" style="swimlane;fontStyle=0;childLayout=stackLayout;horizontal=1;startSize=26;fillColor=none;horizontalStack=0;resizeParent=1;resizeParentMax=0;resizeLast=0;collapsible=1;marginBottom=0;" vertex="1" parent="1">
          <mxGeometry x="1593" y="171" width="120" height="52" as="geometry" />
        </mxCell>
        <mxCell id="JxuMeKBLTt-bc3pycbI3-45" value="+ notifyUser()" style="text;strokeColor=none;fillColor=none;align=left;verticalAlign=top;spacingLeft=4;spacingRight=4;overflow=hidden;rotatable=0;points=[[0,0.5],[1,0.5]];portConstraint=eastwest;" vertex="1" parent="JxuMeKBLTt-bc3pycbI3-44">
          <mxGeometry y="26" width="120" height="26" as="geometry" />
        </mxCell>
        <mxCell id="JxuMeKBLTt-bc3pycbI3-46" value="" style="edgeStyle=orthogonalEdgeStyle;rounded=0;orthogonalLoop=1;jettySize=auto;html=1;endArrow=block;endFill=0;entryX=1;entryY=0.25;entryDx=0;entryDy=0;exitX=0;exitY=0.25;exitDx=0;exitDy=0;" edge="1" parent="1" source="JxuMeKBLTt-bc3pycbI3-47" target="JxuMeKBLTt-bc3pycbI3-44">
          <mxGeometry relative="1" as="geometry" />
        </mxCell>
        <mxCell id="JxuMeKBLTt-bc3pycbI3-47" value="User Location" style="swimlane;fontStyle=0;childLayout=stackLayout;horizontal=1;startSize=26;fillColor=none;horizontalStack=0;resizeParent=1;resizeParentMax=0;resizeLast=0;collapsible=1;marginBottom=0;" vertex="1" parent="1">
          <mxGeometry x="1753" y="171" width="120" height="52" as="geometry" />
        </mxCell>
        <mxCell id="JxuMeKBLTt-bc3pycbI3-48" value="+ getGpsLocation()" style="text;strokeColor=none;fillColor=none;align=left;verticalAlign=top;spacingLeft=4;spacingRight=4;overflow=hidden;rotatable=0;points=[[0,0.5],[1,0.5]];portConstraint=eastwest;" vertex="1" parent="JxuMeKBLTt-bc3pycbI3-47">
          <mxGeometry y="26" width="120" height="26" as="geometry" />
        </mxCell>
        <mxCell id="JxuMeKBLTt-bc3pycbI3-49" value="Current Time" style="swimlane;fontStyle=0;childLayout=stackLayout;horizontal=1;startSize=26;fillColor=none;horizontalStack=0;resizeParent=1;resizeParentMax=0;resizeLast=0;collapsible=1;marginBottom=0;" vertex="1" parent="1">
          <mxGeometry x="1593" y="81" width="120" height="52" as="geometry" />
        </mxCell>
        <mxCell id="JxuMeKBLTt-bc3pycbI3-50" value="+ getUserTime()" style="text;strokeColor=none;fillColor=none;align=left;verticalAlign=top;spacingLeft=4;spacingRight=4;overflow=hidden;rotatable=0;points=[[0,0.5],[1,0.5]];portConstraint=eastwest;" vertex="1" parent="JxuMeKBLTt-bc3pycbI3-49">
          <mxGeometry y="26" width="120" height="26" as="geometry" />
        </mxCell>
        <mxCell id="JxuMeKBLTt-bc3pycbI3-51" value="" style="edgeStyle=orthogonalEdgeStyle;rounded=0;orthogonalLoop=1;jettySize=auto;html=1;endArrow=block;endFill=0;entryX=0.5;entryY=0;entryDx=0;entryDy=0;exitX=0.499;exitY=1.024;exitDx=0;exitDy=0;exitPerimeter=0;" edge="1" parent="1" source="JxuMeKBLTt-bc3pycbI3-50" target="JxuMeKBLTt-bc3pycbI3-44">
          <mxGeometry relative="1" as="geometry">
            <mxPoint x="1663" y="73" as="sourcePoint" />
            <mxPoint x="1663" y="99" as="targetPoint" />
          </mxGeometry>
        </mxCell>
        <mxCell id="JxuMeKBLTt-bc3pycbI3-52" value="" style="edgeStyle=orthogonalEdgeStyle;rounded=0;orthogonalLoop=1;jettySize=auto;html=1;endArrow=none;endFill=0;exitX=1;exitY=0.5;exitDx=0;exitDy=0;startArrow=diamondThin;startFill=1;" edge="1" parent="1" source="_EXAe3c4rwl4PC7S1Te0-33">
          <mxGeometry relative="1" as="geometry">
            <mxPoint x="1323.6" y="366" as="sourcePoint" />
            <mxPoint x="1391" y="366" as="targetPoint" />
            <Array as="points" />
          </mxGeometry>
        </mxCell>
        <mxCell id="JxuMeKBLTt-bc3pycbI3-53" value="" style="edgeStyle=orthogonalEdgeStyle;rounded=0;orthogonalLoop=1;jettySize=auto;html=1;endArrow=none;endFill=0;exitX=1.01;exitY=0.51;exitDx=0;exitDy=0;exitPerimeter=0;startArrow=diamondThin;startFill=1;" edge="1" parent="1" source="_EXAe3c4rwl4PC7S1Te0-15">
          <mxGeometry relative="1" as="geometry">
            <mxPoint x="1513" y="418.0000000000002" as="sourcePoint" />
            <mxPoint x="1593" y="418" as="targetPoint" />
          </mxGeometry>
        </mxCell>
        <mxCell id="JxuMeKBLTt-bc3pycbI3-55" value="" style="edgeStyle=orthogonalEdgeStyle;rounded=0;orthogonalLoop=1;jettySize=auto;html=1;endArrow=diamondThin;endFill=1;entryX=1.004;entryY=0.117;entryDx=0;entryDy=0;entryPerimeter=0;exitX=0.498;exitY=1.005;exitDx=0;exitDy=0;exitPerimeter=0;" edge="1" parent="1" source="JxuMeKBLTt-bc3pycbI3-45" target="_EXAe3c4rwl4PC7S1Te0-11">
          <mxGeometry relative="1" as="geometry" />
        </mxCell>
        <mxCell id="JxuMeKBLTt-bc3pycbI3-56" value="1" style="text;html=1;align=center;verticalAlign=middle;resizable=0;points=[];autosize=1;strokeColor=none;fillColor=none;" vertex="1" parent="1">
          <mxGeometry x="1073" y="-24" width="30" height="30" as="geometry" />
        </mxCell>
        <mxCell id="JxuMeKBLTt-bc3pycbI3-57" value="1" style="text;html=1;align=center;verticalAlign=middle;resizable=0;points=[];autosize=1;strokeColor=none;fillColor=none;" vertex="1" parent="1">
          <mxGeometry x="1139" y="-24" width="30" height="30" as="geometry" />
        </mxCell>
        <mxCell id="JxuMeKBLTt-bc3pycbI3-58" value="1" style="text;html=1;align=center;verticalAlign=middle;resizable=0;points=[];autosize=1;strokeColor=none;fillColor=none;" vertex="1" parent="1">
          <mxGeometry x="1235" y="114" width="30" height="30" as="geometry" />
        </mxCell>
        <mxCell id="JxuMeKBLTt-bc3pycbI3-59" value="1" style="text;html=1;align=center;verticalAlign=middle;resizable=0;points=[];autosize=1;strokeColor=none;fillColor=none;" vertex="1" parent="1">
          <mxGeometry x="1235" y="146" width="30" height="30" as="geometry" />
        </mxCell>
        <mxCell id="JxuMeKBLTt-bc3pycbI3-60" value="1" style="text;html=1;align=center;verticalAlign=middle;resizable=0;points=[];autosize=1;strokeColor=none;fillColor=none;" vertex="1" parent="1">
          <mxGeometry x="1315" y="344" width="30" height="30" as="geometry" />
        </mxCell>
        <mxCell id="JxuMeKBLTt-bc3pycbI3-61" value="1..*" style="text;html=1;align=center;verticalAlign=middle;resizable=0;points=[];autosize=1;strokeColor=none;fillColor=none;" vertex="1" parent="1">
          <mxGeometry x="1359" y="343" width="40" height="30" as="geometry" />
        </mxCell>
        <mxCell id="JxuMeKBLTt-bc3pycbI3-63" value="1" style="text;html=1;align=center;verticalAlign=middle;resizable=0;points=[];autosize=1;strokeColor=none;fillColor=none;" vertex="1" parent="1">
          <mxGeometry x="1505" y="396" width="30" height="30" as="geometry" />
        </mxCell>
        <mxCell id="JxuMeKBLTt-bc3pycbI3-64" value="1..*" style="text;html=1;align=center;verticalAlign=middle;resizable=0;points=[];autosize=1;strokeColor=none;fillColor=none;" vertex="1" parent="1">
          <mxGeometry x="1561" y="395" width="40" height="30" as="geometry" />
        </mxCell>
        <mxCell id="JxuMeKBLTt-bc3pycbI3-66" value="1" style="text;html=1;align=center;verticalAlign=middle;resizable=0;points=[];autosize=1;strokeColor=none;fillColor=none;" vertex="1" parent="1">
          <mxGeometry x="1315" y="159" width="30" height="30" as="geometry" />
        </mxCell>
        <mxCell id="JxuMeKBLTt-bc3pycbI3-67" value="1..*" style="text;html=1;align=center;verticalAlign=middle;resizable=0;points=[];autosize=1;strokeColor=none;fillColor=none;" vertex="1" parent="1">
          <mxGeometry x="1359" y="158" width="40" height="30" as="geometry" />
        </mxCell>
        <mxCell id="JxuMeKBLTt-bc3pycbI3-68" value="1" style="text;html=1;align=center;verticalAlign=middle;resizable=0;points=[];autosize=1;strokeColor=none;fillColor=none;" vertex="1" parent="1">
          <mxGeometry x="1545" y="161" width="30" height="30" as="geometry" />
        </mxCell>
        <mxCell id="JxuMeKBLTt-bc3pycbI3-69" value="1" style="text;html=1;align=center;verticalAlign=middle;resizable=0;points=[];autosize=1;strokeColor=none;fillColor=none;" vertex="1" parent="1">
          <mxGeometry x="1572" y="161" width="30" height="30" as="geometry" />
        </mxCell>
        <mxCell id="JxuMeKBLTt-bc3pycbI3-70" value="1" style="text;html=1;align=center;verticalAlign=middle;resizable=0;points=[];autosize=1;strokeColor=none;fillColor=none;" vertex="1" parent="1">
          <mxGeometry x="1632" y="215" width="30" height="30" as="geometry" />
        </mxCell>
        <mxCell id="JxuMeKBLTt-bc3pycbI3-71" value="1" style="text;html=1;align=center;verticalAlign=middle;resizable=0;points=[];autosize=1;strokeColor=none;fillColor=none;" vertex="1" parent="1">
          <mxGeometry x="1507" y="345" width="30" height="30" as="geometry" />
        </mxCell>
        <mxCell id="JxuMeKBLTt-bc3pycbI3-73" value="" style="rounded=0;whiteSpace=wrap;html=1;strokeColor=default;fontSize=20;fillColor=none;" vertex="1" parent="1">
          <mxGeometry x="173.5" y="40" width="550" height="400" as="geometry" />
        </mxCell>
        <mxCell id="JxuMeKBLTt-bc3pycbI3-82" value="Application" style="swimlane;startSize=20;html=1;strokeColor=default;fontSize=20;fillColor=none;" vertex="1" parent="1">
          <mxGeometry x="495.5" y="481" width="147.5" height="1271" as="geometry" />
        </mxCell>
        <mxCell id="JxuMeKBLTt-bc3pycbI3-95" style="edgeStyle=orthogonalEdgeStyle;rounded=0;orthogonalLoop=1;jettySize=auto;html=1;exitX=0.5;exitY=1;exitDx=0;exitDy=0;entryX=0.5;entryY=0;entryDx=0;entryDy=0;strokeWidth=1;fontSize=15;startArrow=none;startFill=0;endArrow=open;endFill=0;" edge="1" parent="JxuMeKBLTt-bc3pycbI3-82" source="JxuMeKBLTt-bc3pycbI3-92" target="JxuMeKBLTt-bc3pycbI3-94">
          <mxGeometry relative="1" as="geometry" />
        </mxCell>
        <mxCell id="JxuMeKBLTt-bc3pycbI3-92" value="&lt;span style=&quot;font-size: 15px;&quot;&gt;Load Calendar&lt;/span&gt;" style="rounded=1;whiteSpace=wrap;html=1;strokeColor=default;strokeWidth=1;fontSize=20;fillColor=none;" vertex="1" parent="JxuMeKBLTt-bc3pycbI3-82">
          <mxGeometry x="21.25" y="100" width="105" height="50" as="geometry" />
        </mxCell>
        <mxCell id="JxuMeKBLTt-bc3pycbI3-94" value="&lt;span style=&quot;font-size: 15px;&quot;&gt;Load Content&lt;/span&gt;" style="rounded=1;whiteSpace=wrap;html=1;strokeColor=default;strokeWidth=1;fontSize=20;fillColor=none;" vertex="1" parent="JxuMeKBLTt-bc3pycbI3-82">
          <mxGeometry x="21.25" y="200" width="105" height="50" as="geometry" />
        </mxCell>
        <mxCell id="JxuMeKBLTt-bc3pycbI3-116" value="&lt;span style=&quot;font-size: 15px;&quot;&gt;Save &lt;br&gt;Event / List&lt;br&gt;&lt;/span&gt;" style="rounded=1;whiteSpace=wrap;html=1;strokeColor=default;strokeWidth=1;fontSize=20;fillColor=none;" vertex="1" parent="JxuMeKBLTt-bc3pycbI3-82">
          <mxGeometry x="21.25" y="1135" width="105" height="50" as="geometry" />
        </mxCell>
        <mxCell id="JxuMeKBLTt-bc3pycbI3-119" value="" style="ellipse;html=1;shape=endState;strokeWidth=1;fontSize=15;" vertex="1" parent="JxuMeKBLTt-bc3pycbI3-82">
          <mxGeometry x="58.75" y="1225" width="30" height="30" as="geometry" />
        </mxCell>
        <mxCell id="JxuMeKBLTt-bc3pycbI3-120" style="edgeStyle=orthogonalEdgeStyle;rounded=0;orthogonalLoop=1;jettySize=auto;html=1;exitX=0.5;exitY=1;exitDx=0;exitDy=0;entryX=0.5;entryY=0;entryDx=0;entryDy=0;strokeWidth=1;fontSize=15;startArrow=none;startFill=0;endArrow=open;endFill=0;" edge="1" parent="JxuMeKBLTt-bc3pycbI3-82" source="JxuMeKBLTt-bc3pycbI3-116" target="JxuMeKBLTt-bc3pycbI3-119">
          <mxGeometry relative="1" as="geometry" />
        </mxCell>
        <mxCell id="JxuMeKBLTt-bc3pycbI3-81" value="User" style="swimlane;startSize=20;html=1;strokeColor=default;fontSize=20;fillColor=none;" vertex="1" parent="1">
          <mxGeometry x="193" y="481" width="302.5" height="1271" as="geometry" />
        </mxCell>
        <mxCell id="JxuMeKBLTt-bc3pycbI3-86" value="" style="ellipse;html=1;shape=startState;fontSize=20;" vertex="1" parent="JxuMeKBLTt-bc3pycbI3-81">
          <mxGeometry x="134.5" y="30" width="30" height="30" as="geometry" />
        </mxCell>
        <mxCell id="JxuMeKBLTt-bc3pycbI3-87" value="" style="edgeStyle=orthogonalEdgeStyle;html=1;verticalAlign=bottom;endArrow=open;endSize=8;rounded=0;fontSize=20;entryX=0.5;entryY=0;entryDx=0;entryDy=0;" edge="1" source="JxuMeKBLTt-bc3pycbI3-86" parent="JxuMeKBLTt-bc3pycbI3-81" target="JxuMeKBLTt-bc3pycbI3-90">
          <mxGeometry relative="1" as="geometry">
            <mxPoint x="149.5" y="90" as="targetPoint" />
          </mxGeometry>
        </mxCell>
        <mxCell id="JxuMeKBLTt-bc3pycbI3-90" value="&lt;font style=&quot;font-size: 15px;&quot;&gt;Login&lt;/font&gt;" style="rounded=1;whiteSpace=wrap;html=1;strokeColor=default;strokeWidth=1;fontSize=20;fillColor=none;" vertex="1" parent="JxuMeKBLTt-bc3pycbI3-81">
          <mxGeometry x="97" y="100" width="105" height="50" as="geometry" />
        </mxCell>
        <mxCell id="JxuMeKBLTt-bc3pycbI3-168" style="edgeStyle=orthogonalEdgeStyle;rounded=0;orthogonalLoop=1;jettySize=auto;html=1;exitX=0.5;exitY=1;exitDx=0;exitDy=0;entryX=1;entryY=0.5;entryDx=0;entryDy=0;strokeWidth=1;fontSize=10;startArrow=none;startFill=0;endArrow=open;endFill=0;" edge="1" parent="JxuMeKBLTt-bc3pycbI3-81" source="JxuMeKBLTt-bc3pycbI3-103" target="JxuMeKBLTt-bc3pycbI3-165">
          <mxGeometry relative="1" as="geometry" />
        </mxCell>
        <mxCell id="JxuMeKBLTt-bc3pycbI3-103" value="&lt;span style=&quot;font-size: 15px;&quot;&gt;Create Event&lt;br&gt;&lt;/span&gt;" style="rounded=1;whiteSpace=wrap;html=1;strokeColor=default;strokeWidth=1;fontSize=20;fillColor=none;" vertex="1" parent="JxuMeKBLTt-bc3pycbI3-81">
          <mxGeometry x="170.88" y="300" width="105" height="50" as="geometry" />
        </mxCell>
        <mxCell id="JxuMeKBLTt-bc3pycbI3-110" style="edgeStyle=orthogonalEdgeStyle;rounded=0;orthogonalLoop=1;jettySize=auto;html=1;exitX=1;exitY=0.5;exitDx=0;exitDy=0;entryX=0.5;entryY=0;entryDx=0;entryDy=0;strokeWidth=1;fontSize=15;startArrow=none;startFill=0;endArrow=open;endFill=0;" edge="1" parent="JxuMeKBLTt-bc3pycbI3-81" source="JxuMeKBLTt-bc3pycbI3-98" target="JxuMeKBLTt-bc3pycbI3-108">
          <mxGeometry relative="1" as="geometry" />
        </mxCell>
        <mxCell id="JxuMeKBLTt-bc3pycbI3-111" style="edgeStyle=orthogonalEdgeStyle;rounded=0;orthogonalLoop=1;jettySize=auto;html=1;exitX=0;exitY=0.5;exitDx=0;exitDy=0;entryX=0.5;entryY=0;entryDx=0;entryDy=0;strokeWidth=1;fontSize=15;startArrow=none;startFill=0;endArrow=open;endFill=0;" edge="1" parent="JxuMeKBLTt-bc3pycbI3-81" source="JxuMeKBLTt-bc3pycbI3-98" target="JxuMeKBLTt-bc3pycbI3-109">
          <mxGeometry relative="1" as="geometry" />
        </mxCell>
        <mxCell id="JxuMeKBLTt-bc3pycbI3-98" value="" style="rhombus;whiteSpace=wrap;html=1;strokeWidth=1;fontSize=15;" vertex="1" parent="JxuMeKBLTt-bc3pycbI3-81">
          <mxGeometry x="132.38" y="500" width="34.25" height="40" as="geometry" />
        </mxCell>
        <mxCell id="JxuMeKBLTt-bc3pycbI3-115" style="edgeStyle=orthogonalEdgeStyle;rounded=0;orthogonalLoop=1;jettySize=auto;html=1;exitX=0.5;exitY=1;exitDx=0;exitDy=0;entryX=1;entryY=0.5;entryDx=0;entryDy=0;strokeWidth=1;fontSize=15;startArrow=none;startFill=0;endArrow=open;endFill=0;" edge="1" parent="JxuMeKBLTt-bc3pycbI3-81" source="JxuMeKBLTt-bc3pycbI3-108" target="JxuMeKBLTt-bc3pycbI3-113">
          <mxGeometry relative="1" as="geometry" />
        </mxCell>
        <mxCell id="JxuMeKBLTt-bc3pycbI3-108" value="&lt;span style=&quot;font-size: 15px;&quot;&gt;One-time&lt;br&gt;&lt;/span&gt;" style="rounded=1;whiteSpace=wrap;html=1;strokeColor=default;strokeWidth=1;fontSize=20;fillColor=none;" vertex="1" parent="JxuMeKBLTt-bc3pycbI3-81">
          <mxGeometry x="170.88" y="570" width="105" height="50" as="geometry" />
        </mxCell>
        <mxCell id="JxuMeKBLTt-bc3pycbI3-114" style="edgeStyle=orthogonalEdgeStyle;rounded=0;orthogonalLoop=1;jettySize=auto;html=1;exitX=0.5;exitY=1;exitDx=0;exitDy=0;entryX=0;entryY=0.5;entryDx=0;entryDy=0;strokeWidth=1;fontSize=15;startArrow=none;startFill=0;endArrow=open;endFill=0;" edge="1" parent="JxuMeKBLTt-bc3pycbI3-81" source="JxuMeKBLTt-bc3pycbI3-109" target="JxuMeKBLTt-bc3pycbI3-113">
          <mxGeometry relative="1" as="geometry" />
        </mxCell>
        <mxCell id="JxuMeKBLTt-bc3pycbI3-109" value="&lt;span style=&quot;font-size: 15px;&quot;&gt;Recurring&lt;br&gt;&lt;/span&gt;" style="rounded=1;whiteSpace=wrap;html=1;strokeColor=default;strokeWidth=1;fontSize=20;fillColor=none;" vertex="1" parent="JxuMeKBLTt-bc3pycbI3-81">
          <mxGeometry x="26.620000000000005" y="570" width="105" height="50" as="geometry" />
        </mxCell>
        <mxCell id="JxuMeKBLTt-bc3pycbI3-112" value="&lt;font style=&quot;font-size: 11px;&quot;&gt;Recurence?&lt;/font&gt;" style="text;html=1;align=center;verticalAlign=middle;resizable=0;points=[];autosize=1;strokeColor=none;fillColor=none;fontSize=15;" vertex="1" parent="JxuMeKBLTt-bc3pycbI3-81">
          <mxGeometry x="112" y="520" width="75" height="50" as="geometry" />
        </mxCell>
        <mxCell id="JxuMeKBLTt-bc3pycbI3-113" value="" style="rhombus;whiteSpace=wrap;html=1;strokeWidth=1;fontSize=15;" vertex="1" parent="JxuMeKBLTt-bc3pycbI3-81">
          <mxGeometry x="132.37" y="645" width="34.25" height="40" as="geometry" />
        </mxCell>
        <mxCell id="JxuMeKBLTt-bc3pycbI3-121" style="edgeStyle=orthogonalEdgeStyle;rounded=0;orthogonalLoop=1;jettySize=auto;html=1;exitX=0.5;exitY=1;exitDx=0;exitDy=0;entryX=0.5;entryY=0;entryDx=0;entryDy=0;strokeWidth=1;fontSize=15;startArrow=none;startFill=0;endArrow=open;endFill=0;" edge="1" parent="JxuMeKBLTt-bc3pycbI3-81" target="JxuMeKBLTt-bc3pycbI3-124" source="JxuMeKBLTt-bc3pycbI3-113">
          <mxGeometry relative="1" as="geometry">
            <mxPoint x="151.99" y="735" as="sourcePoint" />
          </mxGeometry>
        </mxCell>
        <mxCell id="JxuMeKBLTt-bc3pycbI3-138" style="edgeStyle=orthogonalEdgeStyle;rounded=0;orthogonalLoop=1;jettySize=auto;html=1;exitX=0;exitY=0.5;exitDx=0;exitDy=0;entryX=0;entryY=0.5;entryDx=0;entryDy=0;strokeWidth=1;fontSize=15;startArrow=none;startFill=0;endArrow=open;endFill=0;" edge="1" parent="JxuMeKBLTt-bc3pycbI3-81" source="JxuMeKBLTt-bc3pycbI3-124" target="JxuMeKBLTt-bc3pycbI3-137">
          <mxGeometry relative="1" as="geometry">
            <Array as="points">
              <mxPoint x="72.75" y="740" />
              <mxPoint x="72.75" y="890" />
            </Array>
          </mxGeometry>
        </mxCell>
        <mxCell id="JxuMeKBLTt-bc3pycbI3-124" value="" style="rhombus;whiteSpace=wrap;html=1;strokeWidth=1;fontSize=15;" vertex="1" parent="JxuMeKBLTt-bc3pycbI3-81">
          <mxGeometry x="132.38" y="720" width="34.25" height="40" as="geometry" />
        </mxCell>
        <mxCell id="JxuMeKBLTt-bc3pycbI3-140" style="edgeStyle=orthogonalEdgeStyle;rounded=0;orthogonalLoop=1;jettySize=auto;html=1;exitX=0.5;exitY=1;exitDx=0;exitDy=0;entryX=0.5;entryY=0;entryDx=0;entryDy=0;strokeWidth=1;fontSize=15;startArrow=none;startFill=0;endArrow=open;endFill=0;" edge="1" parent="JxuMeKBLTt-bc3pycbI3-81" source="JxuMeKBLTt-bc3pycbI3-137" target="JxuMeKBLTt-bc3pycbI3-139">
          <mxGeometry relative="1" as="geometry" />
        </mxCell>
        <mxCell id="JxuMeKBLTt-bc3pycbI3-137" value="" style="rhombus;whiteSpace=wrap;html=1;strokeWidth=1;fontSize=15;" vertex="1" parent="JxuMeKBLTt-bc3pycbI3-81">
          <mxGeometry x="132.38" y="870" width="34.25" height="40" as="geometry" />
        </mxCell>
        <mxCell id="JxuMeKBLTt-bc3pycbI3-129" value="&lt;span style=&quot;font-size: 11px;&quot;&gt;Reminder (time) ?&lt;/span&gt;" style="text;html=1;align=center;verticalAlign=middle;resizable=0;points=[];autosize=1;strokeColor=none;fillColor=none;fontSize=15;" vertex="1" parent="JxuMeKBLTt-bc3pycbI3-81">
          <mxGeometry x="100.00999999999999" y="741" width="100" height="50" as="geometry" />
        </mxCell>
        <mxCell id="JxuMeKBLTt-bc3pycbI3-147" style="edgeStyle=orthogonalEdgeStyle;rounded=0;orthogonalLoop=1;jettySize=auto;html=1;exitX=1;exitY=0.5;exitDx=0;exitDy=0;entryX=0.5;entryY=0;entryDx=0;entryDy=0;strokeWidth=1;fontSize=15;startArrow=none;startFill=0;endArrow=open;endFill=0;" edge="1" parent="JxuMeKBLTt-bc3pycbI3-81" source="JxuMeKBLTt-bc3pycbI3-139" target="JxuMeKBLTt-bc3pycbI3-146">
          <mxGeometry relative="1" as="geometry" />
        </mxCell>
        <mxCell id="JxuMeKBLTt-bc3pycbI3-150" style="edgeStyle=orthogonalEdgeStyle;rounded=0;orthogonalLoop=1;jettySize=auto;html=1;exitX=0;exitY=0.5;exitDx=0;exitDy=0;entryX=0;entryY=0.5;entryDx=0;entryDy=0;strokeWidth=1;fontSize=15;startArrow=none;startFill=0;endArrow=open;endFill=0;" edge="1" parent="JxuMeKBLTt-bc3pycbI3-81" source="JxuMeKBLTt-bc3pycbI3-139" target="JxuMeKBLTt-bc3pycbI3-148">
          <mxGeometry relative="1" as="geometry">
            <Array as="points">
              <mxPoint x="72.75" y="965" />
              <mxPoint x="72.75" y="1115" />
            </Array>
          </mxGeometry>
        </mxCell>
        <mxCell id="JxuMeKBLTt-bc3pycbI3-139" value="" style="rhombus;whiteSpace=wrap;html=1;strokeWidth=1;fontSize=15;" vertex="1" parent="JxuMeKBLTt-bc3pycbI3-81">
          <mxGeometry x="132.37" y="945" width="34.25" height="40" as="geometry" />
        </mxCell>
        <mxCell id="JxuMeKBLTt-bc3pycbI3-144" style="edgeStyle=orthogonalEdgeStyle;rounded=0;orthogonalLoop=1;jettySize=auto;html=1;exitX=0.5;exitY=1;exitDx=0;exitDy=0;entryX=1;entryY=0.5;entryDx=0;entryDy=0;strokeWidth=1;fontSize=15;startArrow=none;startFill=0;endArrow=open;endFill=0;" edge="1" parent="JxuMeKBLTt-bc3pycbI3-81" source="JxuMeKBLTt-bc3pycbI3-126" target="JxuMeKBLTt-bc3pycbI3-137">
          <mxGeometry relative="1" as="geometry">
            <Array as="points">
              <mxPoint x="216.75" y="890" />
            </Array>
          </mxGeometry>
        </mxCell>
        <mxCell id="JxuMeKBLTt-bc3pycbI3-126" value="&lt;span style=&quot;font-size: 15px;&quot;&gt;Set Time&lt;br&gt;&lt;/span&gt;" style="rounded=1;whiteSpace=wrap;html=1;strokeColor=default;strokeWidth=1;fontSize=20;fillColor=none;" vertex="1" parent="JxuMeKBLTt-bc3pycbI3-81">
          <mxGeometry x="170.88" y="802" width="105" height="50" as="geometry" />
        </mxCell>
        <mxCell id="JxuMeKBLTt-bc3pycbI3-135" style="edgeStyle=orthogonalEdgeStyle;rounded=0;orthogonalLoop=1;jettySize=auto;html=1;exitX=1;exitY=0.5;exitDx=0;exitDy=0;entryX=0.5;entryY=0;entryDx=0;entryDy=0;strokeWidth=1;fontSize=15;startArrow=none;startFill=0;endArrow=open;endFill=0;" edge="1" parent="JxuMeKBLTt-bc3pycbI3-81" source="JxuMeKBLTt-bc3pycbI3-124" target="JxuMeKBLTt-bc3pycbI3-126">
          <mxGeometry relative="1" as="geometry" />
        </mxCell>
        <mxCell id="JxuMeKBLTt-bc3pycbI3-141" value="&lt;span style=&quot;font-size: 10px;&quot;&gt;Reminder (gps) ?&lt;/span&gt;" style="text;html=1;align=center;verticalAlign=middle;resizable=0;points=[];autosize=1;strokeColor=none;fillColor=none;fontSize=15;" vertex="1" parent="JxuMeKBLTt-bc3pycbI3-81">
          <mxGeometry x="97.75" y="968" width="100" height="50" as="geometry" />
        </mxCell>
        <mxCell id="JxuMeKBLTt-bc3pycbI3-149" style="edgeStyle=orthogonalEdgeStyle;rounded=0;orthogonalLoop=1;jettySize=auto;html=1;exitX=0.5;exitY=1;exitDx=0;exitDy=0;entryX=1;entryY=0.5;entryDx=0;entryDy=0;strokeWidth=1;fontSize=15;startArrow=none;startFill=0;endArrow=open;endFill=0;" edge="1" parent="JxuMeKBLTt-bc3pycbI3-81" source="JxuMeKBLTt-bc3pycbI3-146" target="JxuMeKBLTt-bc3pycbI3-148">
          <mxGeometry relative="1" as="geometry" />
        </mxCell>
        <mxCell id="JxuMeKBLTt-bc3pycbI3-146" value="&lt;span style=&quot;font-size: 15px;&quot;&gt;Add location&lt;br&gt;&lt;/span&gt;" style="rounded=1;whiteSpace=wrap;html=1;strokeColor=default;strokeWidth=1;fontSize=20;fillColor=none;" vertex="1" parent="JxuMeKBLTt-bc3pycbI3-81">
          <mxGeometry x="170.88" y="1025" width="105" height="50" as="geometry" />
        </mxCell>
        <mxCell id="JxuMeKBLTt-bc3pycbI3-148" value="" style="rhombus;whiteSpace=wrap;html=1;strokeWidth=1;fontSize=15;" vertex="1" parent="JxuMeKBLTt-bc3pycbI3-81">
          <mxGeometry x="132.89" y="1095" width="34.25" height="40" as="geometry" />
        </mxCell>
        <mxCell id="JxuMeKBLTt-bc3pycbI3-159" style="edgeStyle=orthogonalEdgeStyle;rounded=0;orthogonalLoop=1;jettySize=auto;html=1;exitX=1;exitY=0.5;exitDx=0;exitDy=0;entryX=0.5;entryY=0;entryDx=0;entryDy=0;strokeWidth=1;fontSize=10;startArrow=none;startFill=0;endArrow=open;endFill=0;" edge="1" parent="JxuMeKBLTt-bc3pycbI3-81" source="JxuMeKBLTt-bc3pycbI3-153" target="JxuMeKBLTt-bc3pycbI3-103">
          <mxGeometry relative="1" as="geometry" />
        </mxCell>
        <mxCell id="JxuMeKBLTt-bc3pycbI3-160" style="edgeStyle=orthogonalEdgeStyle;rounded=0;orthogonalLoop=1;jettySize=auto;html=1;exitX=0;exitY=0.5;exitDx=0;exitDy=0;entryX=0.5;entryY=0;entryDx=0;entryDy=0;strokeWidth=1;fontSize=10;startArrow=none;startFill=0;endArrow=open;endFill=0;" edge="1" parent="JxuMeKBLTt-bc3pycbI3-81" source="JxuMeKBLTt-bc3pycbI3-153" target="JxuMeKBLTt-bc3pycbI3-156">
          <mxGeometry relative="1" as="geometry" />
        </mxCell>
        <mxCell id="JxuMeKBLTt-bc3pycbI3-153" value="" style="rhombus;whiteSpace=wrap;html=1;strokeWidth=1;fontSize=15;" vertex="1" parent="JxuMeKBLTt-bc3pycbI3-81">
          <mxGeometry x="131.62" y="250" width="34.25" height="40" as="geometry" />
        </mxCell>
        <mxCell id="JxuMeKBLTt-bc3pycbI3-162" style="edgeStyle=orthogonalEdgeStyle;rounded=0;orthogonalLoop=1;jettySize=auto;html=1;exitX=0.5;exitY=1;exitDx=0;exitDy=0;entryX=0.5;entryY=0;entryDx=0;entryDy=0;strokeWidth=1;fontSize=10;startArrow=none;startFill=0;endArrow=open;endFill=0;" edge="1" parent="JxuMeKBLTt-bc3pycbI3-81" source="JxuMeKBLTt-bc3pycbI3-156" target="JxuMeKBLTt-bc3pycbI3-161">
          <mxGeometry relative="1" as="geometry" />
        </mxCell>
        <mxCell id="JxuMeKBLTt-bc3pycbI3-156" value="&lt;span style=&quot;font-size: 15px;&quot;&gt;Create List&lt;br&gt;&lt;/span&gt;" style="rounded=1;whiteSpace=wrap;html=1;strokeColor=default;strokeWidth=1;fontSize=20;fillColor=none;" vertex="1" parent="JxuMeKBLTt-bc3pycbI3-81">
          <mxGeometry x="27.379999999999995" y="300" width="105" height="50" as="geometry" />
        </mxCell>
        <mxCell id="JxuMeKBLTt-bc3pycbI3-167" style="edgeStyle=orthogonalEdgeStyle;rounded=0;orthogonalLoop=1;jettySize=auto;html=1;exitX=0.5;exitY=1;exitDx=0;exitDy=0;entryX=0;entryY=0.5;entryDx=0;entryDy=0;strokeWidth=1;fontSize=10;startArrow=none;startFill=0;endArrow=open;endFill=0;" edge="1" parent="JxuMeKBLTt-bc3pycbI3-81" source="JxuMeKBLTt-bc3pycbI3-161" target="JxuMeKBLTt-bc3pycbI3-165">
          <mxGeometry relative="1" as="geometry" />
        </mxCell>
        <mxCell id="JxuMeKBLTt-bc3pycbI3-161" value="&lt;span style=&quot;font-size: 15px;&quot;&gt;Add items&lt;br&gt;&lt;/span&gt;" style="rounded=1;whiteSpace=wrap;html=1;strokeColor=default;strokeWidth=1;fontSize=20;fillColor=none;" vertex="1" parent="JxuMeKBLTt-bc3pycbI3-81">
          <mxGeometry x="27.379999999999995" y="375" width="105" height="50" as="geometry" />
        </mxCell>
        <mxCell id="JxuMeKBLTt-bc3pycbI3-166" style="edgeStyle=orthogonalEdgeStyle;rounded=0;orthogonalLoop=1;jettySize=auto;html=1;exitX=0.5;exitY=1;exitDx=0;exitDy=0;entryX=0.5;entryY=0;entryDx=0;entryDy=0;strokeWidth=1;fontSize=10;startArrow=none;startFill=0;endArrow=open;endFill=0;" edge="1" parent="JxuMeKBLTt-bc3pycbI3-81" source="JxuMeKBLTt-bc3pycbI3-165" target="JxuMeKBLTt-bc3pycbI3-98">
          <mxGeometry relative="1" as="geometry" />
        </mxCell>
        <mxCell id="JxuMeKBLTt-bc3pycbI3-165" value="" style="rhombus;whiteSpace=wrap;html=1;strokeWidth=1;fontSize=15;" vertex="1" parent="JxuMeKBLTt-bc3pycbI3-81">
          <mxGeometry x="132.38" y="430" width="34.25" height="40" as="geometry" />
        </mxCell>
        <mxCell id="JxuMeKBLTt-bc3pycbI3-93" style="edgeStyle=orthogonalEdgeStyle;rounded=0;orthogonalLoop=1;jettySize=auto;html=1;exitX=1;exitY=0.5;exitDx=0;exitDy=0;entryX=0;entryY=0.5;entryDx=0;entryDy=0;fontSize=15;startArrow=none;startFill=0;endArrow=open;endFill=0;strokeWidth=1;" edge="1" parent="1" source="JxuMeKBLTt-bc3pycbI3-90" target="JxuMeKBLTt-bc3pycbI3-92">
          <mxGeometry relative="1" as="geometry" />
        </mxCell>
        <mxCell id="JxuMeKBLTt-bc3pycbI3-151" style="edgeStyle=orthogonalEdgeStyle;rounded=0;orthogonalLoop=1;jettySize=auto;html=1;exitX=0.5;exitY=1;exitDx=0;exitDy=0;entryX=0;entryY=0.5;entryDx=0;entryDy=0;strokeWidth=1;fontSize=15;startArrow=none;startFill=0;endArrow=open;endFill=0;" edge="1" parent="1" source="JxuMeKBLTt-bc3pycbI3-148" target="JxuMeKBLTt-bc3pycbI3-116">
          <mxGeometry relative="1" as="geometry" />
        </mxCell>
        <mxCell id="JxuMeKBLTt-bc3pycbI3-154" style="edgeStyle=orthogonalEdgeStyle;rounded=0;orthogonalLoop=1;jettySize=auto;html=1;exitX=0;exitY=0.5;exitDx=0;exitDy=0;entryX=0.5;entryY=0;entryDx=0;entryDy=0;strokeWidth=1;fontSize=10;startArrow=none;startFill=0;endArrow=open;endFill=0;" edge="1" parent="1" source="JxuMeKBLTt-bc3pycbI3-94" target="JxuMeKBLTt-bc3pycbI3-153">
          <mxGeometry relative="1" as="geometry" />
        </mxCell>
        <mxCell id="JxuMeKBLTt-bc3pycbI3-210" value="Application" style="swimlane;startSize=20;html=1;strokeColor=default;fontSize=20;fillColor=none;" vertex="1" parent="1">
          <mxGeometry x="955" y="481" width="270" height="724" as="geometry" />
        </mxCell>
        <mxCell id="JxuMeKBLTt-bc3pycbI3-265" style="edgeStyle=orthogonalEdgeStyle;rounded=0;orthogonalLoop=1;jettySize=auto;html=1;exitX=0.5;exitY=1;exitDx=0;exitDy=0;strokeWidth=1;fontSize=10;startArrow=none;startFill=0;endArrow=open;endFill=0;entryX=0.5;entryY=0;entryDx=0;entryDy=0;" edge="1" parent="JxuMeKBLTt-bc3pycbI3-210" source="JxuMeKBLTt-bc3pycbI3-218" target="JxuMeKBLTt-bc3pycbI3-260">
          <mxGeometry relative="1" as="geometry">
            <mxPoint x="147.75" y="136" as="targetPoint" />
          </mxGeometry>
        </mxCell>
        <mxCell id="JxuMeKBLTt-bc3pycbI3-218" value="" style="ellipse;html=1;shape=startState;fontSize=20;" vertex="1" parent="JxuMeKBLTt-bc3pycbI3-210">
          <mxGeometry x="115.50999999999999" y="41" width="30" height="30" as="geometry" />
        </mxCell>
        <mxCell id="JxuMeKBLTt-bc3pycbI3-269" style="edgeStyle=orthogonalEdgeStyle;rounded=0;orthogonalLoop=1;jettySize=auto;html=1;entryX=0.5;entryY=0;entryDx=0;entryDy=0;strokeWidth=1;fontSize=10;startArrow=none;startFill=0;endArrow=open;endFill=0;" edge="1" parent="JxuMeKBLTt-bc3pycbI3-210" source="JxuMeKBLTt-bc3pycbI3-260" target="JxuMeKBLTt-bc3pycbI3-262">
          <mxGeometry relative="1" as="geometry" />
        </mxCell>
        <mxCell id="JxuMeKBLTt-bc3pycbI3-260" value="&lt;span style=&quot;font-size: 15px;&quot;&gt;Check events&lt;/span&gt;" style="rounded=1;whiteSpace=wrap;html=1;strokeColor=default;strokeWidth=1;fontSize=20;fillColor=none;" vertex="1" parent="JxuMeKBLTt-bc3pycbI3-210">
          <mxGeometry x="78.00999999999999" y="111" width="105" height="50" as="geometry" />
        </mxCell>
        <mxCell id="JxuMeKBLTt-bc3pycbI3-275" style="edgeStyle=orthogonalEdgeStyle;rounded=0;orthogonalLoop=1;jettySize=auto;html=1;exitX=0.5;exitY=1;exitDx=0;exitDy=0;entryX=0.5;entryY=0;entryDx=0;entryDy=0;strokeWidth=1;fontSize=10;startArrow=none;startFill=0;endArrow=open;endFill=0;" edge="1" parent="JxuMeKBLTt-bc3pycbI3-210" source="JxuMeKBLTt-bc3pycbI3-261" target="JxuMeKBLTt-bc3pycbI3-274">
          <mxGeometry relative="1" as="geometry" />
        </mxCell>
        <mxCell id="JxuMeKBLTt-bc3pycbI3-261" value="&lt;span style=&quot;font-size: 15px;&quot;&gt;Get user time&lt;/span&gt;" style="rounded=1;whiteSpace=wrap;html=1;strokeColor=default;strokeWidth=1;fontSize=20;fillColor=none;" vertex="1" parent="JxuMeKBLTt-bc3pycbI3-210">
          <mxGeometry x="78.00999999999999" y="305" width="105" height="50" as="geometry" />
        </mxCell>
        <mxCell id="JxuMeKBLTt-bc3pycbI3-280" style="edgeStyle=orthogonalEdgeStyle;rounded=0;orthogonalLoop=1;jettySize=auto;html=1;exitX=0.5;exitY=1;exitDx=0;exitDy=0;entryX=0.5;entryY=0;entryDx=0;entryDy=0;strokeWidth=1;fontSize=10;startArrow=none;startFill=0;endArrow=open;endFill=0;" edge="1" parent="JxuMeKBLTt-bc3pycbI3-210" source="JxuMeKBLTt-bc3pycbI3-267" target="JxuMeKBLTt-bc3pycbI3-279">
          <mxGeometry relative="1" as="geometry" />
        </mxCell>
        <mxCell id="JxuMeKBLTt-bc3pycbI3-267" value="&lt;span style=&quot;font-size: 15px;&quot;&gt;Get location&lt;/span&gt;" style="rounded=1;whiteSpace=wrap;html=1;strokeColor=default;strokeWidth=1;fontSize=20;fillColor=none;" vertex="1" parent="JxuMeKBLTt-bc3pycbI3-210">
          <mxGeometry x="78" y="473" width="105" height="50" as="geometry" />
        </mxCell>
        <mxCell id="JxuMeKBLTt-bc3pycbI3-271" style="edgeStyle=orthogonalEdgeStyle;rounded=0;orthogonalLoop=1;jettySize=auto;html=1;exitX=1;exitY=0.5;exitDx=0;exitDy=0;entryX=0;entryY=0.5;entryDx=0;entryDy=0;strokeWidth=1;fontSize=10;startArrow=none;startFill=0;endArrow=open;endFill=0;" edge="1" parent="JxuMeKBLTt-bc3pycbI3-210" source="JxuMeKBLTt-bc3pycbI3-262" target="JxuMeKBLTt-bc3pycbI3-270">
          <mxGeometry relative="1" as="geometry" />
        </mxCell>
        <mxCell id="JxuMeKBLTt-bc3pycbI3-272" style="edgeStyle=orthogonalEdgeStyle;rounded=0;orthogonalLoop=1;jettySize=auto;html=1;exitX=0.5;exitY=1;exitDx=0;exitDy=0;entryX=0.5;entryY=0;entryDx=0;entryDy=0;strokeWidth=1;fontSize=10;startArrow=none;startFill=0;endArrow=open;endFill=0;" edge="1" parent="JxuMeKBLTt-bc3pycbI3-210" source="JxuMeKBLTt-bc3pycbI3-262" target="JxuMeKBLTt-bc3pycbI3-261">
          <mxGeometry relative="1" as="geometry" />
        </mxCell>
        <mxCell id="JxuMeKBLTt-bc3pycbI3-262" value="" style="rhombus;whiteSpace=wrap;html=1;strokeWidth=1;fontSize=15;" vertex="1" parent="JxuMeKBLTt-bc3pycbI3-210">
          <mxGeometry x="113.38000000000011" y="207" width="34.25" height="40" as="geometry" />
        </mxCell>
        <mxCell id="JxuMeKBLTt-bc3pycbI3-270" value="" style="ellipse;html=1;shape=endState;strokeWidth=1;fontSize=15;" vertex="1" parent="JxuMeKBLTt-bc3pycbI3-210">
          <mxGeometry x="198" y="212" width="30" height="30" as="geometry" />
        </mxCell>
        <mxCell id="JxuMeKBLTt-bc3pycbI3-278" style="edgeStyle=orthogonalEdgeStyle;rounded=0;orthogonalLoop=1;jettySize=auto;html=1;exitX=0.5;exitY=1;exitDx=0;exitDy=0;entryX=0.5;entryY=0;entryDx=0;entryDy=0;strokeWidth=1;fontSize=10;startArrow=none;startFill=0;endArrow=open;endFill=0;" edge="1" parent="JxuMeKBLTt-bc3pycbI3-210" source="JxuMeKBLTt-bc3pycbI3-274" target="JxuMeKBLTt-bc3pycbI3-267">
          <mxGeometry relative="1" as="geometry" />
        </mxCell>
        <mxCell id="JxuMeKBLTt-bc3pycbI3-274" value="" style="rhombus;whiteSpace=wrap;html=1;strokeWidth=1;fontSize=15;" vertex="1" parent="JxuMeKBLTt-bc3pycbI3-210">
          <mxGeometry x="113.38000000000011" y="401" width="34.25" height="40" as="geometry" />
        </mxCell>
        <mxCell id="JxuMeKBLTt-bc3pycbI3-287" style="edgeStyle=orthogonalEdgeStyle;rounded=0;orthogonalLoop=1;jettySize=auto;html=1;exitX=0.5;exitY=1;exitDx=0;exitDy=0;entryX=0.5;entryY=0;entryDx=0;entryDy=0;strokeWidth=1;fontSize=10;startArrow=none;startFill=0;endArrow=open;endFill=0;" edge="1" parent="JxuMeKBLTt-bc3pycbI3-210" source="JxuMeKBLTt-bc3pycbI3-279" target="JxuMeKBLTt-bc3pycbI3-284">
          <mxGeometry relative="1" as="geometry" />
        </mxCell>
        <mxCell id="JxuMeKBLTt-bc3pycbI3-279" value="" style="rhombus;whiteSpace=wrap;html=1;strokeWidth=1;fontSize=15;" vertex="1" parent="JxuMeKBLTt-bc3pycbI3-210">
          <mxGeometry x="113.3800000000001" y="574" width="34.25" height="40" as="geometry" />
        </mxCell>
        <mxCell id="JxuMeKBLTt-bc3pycbI3-284" value="" style="ellipse;html=1;shape=endState;strokeWidth=1;fontSize=15;" vertex="1" parent="JxuMeKBLTt-bc3pycbI3-210">
          <mxGeometry x="115.5" y="665" width="30" height="30" as="geometry" />
        </mxCell>
        <mxCell id="JxuMeKBLTt-bc3pycbI3-217" value="User" style="swimlane;startSize=20;html=1;strokeColor=default;fontSize=20;fillColor=none;" vertex="1" parent="1">
          <mxGeometry x="769" y="481" width="186" height="724" as="geometry" />
        </mxCell>
        <mxCell id="JxuMeKBLTt-bc3pycbI3-276" value="&lt;span style=&quot;font-size: 15px;&quot;&gt;Create Notification&lt;/span&gt;" style="rounded=1;whiteSpace=wrap;html=1;strokeWidth=1;fontSize=20;sketch=0;strokeColor=default;shadow=0;" vertex="1" parent="JxuMeKBLTt-bc3pycbI3-217">
          <mxGeometry x="40.5" y="396" width="105" height="50" as="geometry" />
        </mxCell>
        <mxCell id="JxuMeKBLTt-bc3pycbI3-286" style="edgeStyle=orthogonalEdgeStyle;rounded=0;orthogonalLoop=1;jettySize=auto;html=1;exitX=0.5;exitY=1;exitDx=0;exitDy=0;entryX=0.5;entryY=0;entryDx=0;entryDy=0;strokeWidth=1;fontSize=10;startArrow=none;startFill=0;endArrow=open;endFill=0;sketch=1;" edge="1" parent="JxuMeKBLTt-bc3pycbI3-217" source="JxuMeKBLTt-bc3pycbI3-281" target="JxuMeKBLTt-bc3pycbI3-288">
          <mxGeometry relative="1" as="geometry">
            <mxPoint x="92.99999999999977" y="713.0000000000002" as="targetPoint" />
          </mxGeometry>
        </mxCell>
        <mxCell id="JxuMeKBLTt-bc3pycbI3-281" value="&lt;span style=&quot;font-size: 15px;&quot;&gt;Create Notification&lt;/span&gt;" style="rounded=1;whiteSpace=wrap;html=1;strokeWidth=1;fontSize=20;sketch=0;strokeColor=default;shadow=0;" vertex="1" parent="JxuMeKBLTt-bc3pycbI3-217">
          <mxGeometry x="40.5" y="569" width="105" height="50" as="geometry" />
        </mxCell>
        <mxCell id="JxuMeKBLTt-bc3pycbI3-288" value="" style="ellipse;html=1;shape=endState;strokeWidth=1;fontSize=15;" vertex="1" parent="JxuMeKBLTt-bc3pycbI3-217">
          <mxGeometry x="78" y="665" width="30" height="30" as="geometry" />
        </mxCell>
        <mxCell id="JxuMeKBLTt-bc3pycbI3-277" style="edgeStyle=orthogonalEdgeStyle;rounded=0;orthogonalLoop=1;jettySize=auto;html=1;exitX=0;exitY=0.5;exitDx=0;exitDy=0;entryX=1;entryY=0.5;entryDx=0;entryDy=0;strokeWidth=1;fontSize=10;startArrow=none;startFill=0;endArrow=open;endFill=0;" edge="1" parent="1" source="JxuMeKBLTt-bc3pycbI3-274" target="JxuMeKBLTt-bc3pycbI3-276">
          <mxGeometry relative="1" as="geometry">
            <mxPoint x="950.87" y="902" as="targetPoint" />
          </mxGeometry>
        </mxCell>
        <mxCell id="JxuMeKBLTt-bc3pycbI3-282" style="edgeStyle=orthogonalEdgeStyle;rounded=0;orthogonalLoop=1;jettySize=auto;html=1;exitX=0.5;exitY=1;exitDx=0;exitDy=0;entryX=0;entryY=0.5;entryDx=0;entryDy=0;strokeWidth=1;fontSize=10;startArrow=none;startFill=0;endArrow=open;endFill=0;" edge="1" parent="1" source="JxuMeKBLTt-bc3pycbI3-276" target="JxuMeKBLTt-bc3pycbI3-267">
          <mxGeometry relative="1" as="geometry" />
        </mxCell>
        <mxCell id="JxuMeKBLTt-bc3pycbI3-283" style="edgeStyle=orthogonalEdgeStyle;rounded=0;orthogonalLoop=1;jettySize=auto;html=1;exitX=0;exitY=0.5;exitDx=0;exitDy=0;entryX=1;entryY=0.5;entryDx=0;entryDy=0;strokeWidth=1;fontSize=10;startArrow=none;startFill=0;endArrow=open;endFill=0;" edge="1" parent="1" source="JxuMeKBLTt-bc3pycbI3-279" target="JxuMeKBLTt-bc3pycbI3-281">
          <mxGeometry relative="1" as="geometry">
            <mxPoint x="950.87" y="1120" as="targetPoint" />
            <Array as="points" />
          </mxGeometry>
        </mxCell>
      </root>
    </mxGraphModel>
  </diagram>
</mxfile>
